<svg width="64" height="65" viewBox="0 0 64 65" fill="none" xmlns="http://www.w3.org/2000/svg">
<mask id="path-1-inside-1_1_507" fill="white">
<path d="M30.3621 0.162563C29.9393 0.275329 29.2345 0.585434 28.8116 0.839156C28.3887 1.06469 27.6839 1.62852 27.2893 2.07958C26.8664 2.50245 26.3026 3.32 26.0488 3.85564C25.7669 4.44765 25.5696 5.49074 25.5696 6.39286C25.5696 7.2386 25.7387 8.39445 25.9643 8.93009C26.1898 9.46572 26.6972 10.3115 27.0919 10.7625C27.4866 11.2136 28.3887 11.8902 29.0935 12.2567C29.9674 12.6513 30.926 12.8769 31.969 12.8769C33.0121 12.8769 33.9706 12.6513 34.8446 12.2567C35.5493 11.8902 36.4515 11.2418 36.8461 10.7625C37.2408 10.3115 37.7483 9.46572 37.9738 8.93009C38.1993 8.39445 38.3685 7.2386 38.3685 6.39286C38.3685 5.49074 38.1711 4.44765 37.8892 3.85564C37.6355 3.32 37.0717 2.50245 36.6488 2.07958C36.2541 1.62852 35.4084 1.0083 34.7882 0.698199C34.168 0.388094 33.0967 0.0779889 32.3919 0.0216061C31.6871 -0.0347767 30.785 0.0216061 30.3621 0.162563ZM26.5845 14.6811C25.8515 15.2168 24.752 16.2598 24.16 16.9928C23.5398 17.7822 22.835 19.1636 22.5249 20.2066C22.0175 21.8136 21.9611 22.8284 21.9611 28.4667V34.8662H27.0355C27.0355 22.3492 27.0637 21.9827 27.6558 20.7705C28.0222 20.0657 28.7552 19.2199 29.2909 18.8535C29.8265 18.5152 30.7286 18.1487 31.2643 18.0359C31.7999 17.9513 32.7302 18.0359 33.3222 18.2051C33.8861 18.3742 34.76 18.8253 35.211 19.2199C35.9722 19.8683 36.2823 19.9247 38.735 19.9247C40.2009 19.9247 41.4132 19.8683 41.4132 19.7838C41.4132 19.6992 41.2158 19.1918 40.9903 18.6561C40.7647 18.1205 39.9754 17.021 39.2424 16.2317C38.4812 15.4423 37.41 14.5402 36.8461 14.2583C35.8594 13.7508 35.6903 13.7508 34.5908 14.1455C33.9142 14.3992 32.7584 14.5684 31.969 14.5684C31.2079 14.5684 29.9956 14.371 29.2909 14.1455C28.5861 13.92 27.9941 13.7226 27.9941 13.7226C27.9659 13.7226 27.3456 14.1455 26.5845 14.6811ZM29.0935 24.6327L29.1499 27.1135C40.8211 27.3391 43.161 27.5082 43.6121 27.7619C43.9504 27.9311 44.5706 28.5795 45.0216 29.1433C45.6701 30.0172 45.7828 30.4401 45.7828 32.0752C45.7828 33.7667 45.6982 34.0768 44.8807 35.1199C43.9786 36.2475 43.9504 36.3603 43.9504 38.9539C43.9504 40.4199 44.0068 41.6321 44.0913 41.6321C44.1759 41.6321 44.8243 41.322 45.5855 40.9555C46.3185 40.589 47.4461 39.7151 48.0945 39.0385C48.7147 38.3901 49.4759 37.4034 49.786 36.9241C50.2652 36.0502 50.2652 35.9374 49.8142 34.5279C49.5323 33.7103 49.3349 32.6672 49.3067 32.188C49.3067 31.7087 49.5323 30.6375 49.786 29.7917C50.2371 28.2694 50.2371 28.2412 49.5323 26.9726C49.1376 26.2678 48.3482 25.2811 47.7844 24.8018C47.2206 24.2944 46.0929 23.5332 45.3036 23.1104L43.8094 22.321L29.0089 22.1518L29.0935 24.6327ZM18.4654 23.054C17.8451 23.3923 16.8303 24.0971 16.2382 24.6609C15.6462 25.2529 14.8005 26.2396 14.4058 26.888L13.6728 28.0438C14.4058 30.3837 14.6313 31.4268 14.6313 31.9061C14.6313 32.3571 14.434 33.4566 14.1803 34.3023C13.7292 35.8247 13.7292 35.8529 14.434 37.1215C14.8287 37.8263 15.5898 38.813 16.1537 39.2922C16.7175 39.7997 17.8452 40.5608 18.6627 40.9837L20.1568 41.7731L34.9573 41.914L34.8164 37.1497C22.6941 36.9523 21.3973 36.8396 20.6361 36.4731C20.1287 36.1912 19.3675 35.5146 18.9446 34.9507C18.2962 34.0768 18.1834 33.6539 18.1834 32.0188C18.1834 30.2992 18.268 30.0172 19.0856 28.9742C19.9877 27.8465 20.0159 27.7337 20.0159 25.1401C20.0159 23.6742 19.9031 22.462 19.7904 22.462C19.6776 22.4901 19.0856 22.7439 18.4654 23.054ZM4.08775 25.9859C3.46754 26.2114 2.53723 26.8034 2.00159 27.3109C1.46595 27.8183 0.81755 28.7486 0.535636 29.3688C0.225531 30.0454 0 31.1167 0 32.047C0 32.921 0.225531 34.0768 0.507445 34.7252C0.789359 35.3454 1.57872 36.3321 2.25531 36.9241C2.9601 37.5162 3.94679 38.1082 4.51062 38.2491C5.04626 38.3901 6.00477 38.531 6.62498 38.531C7.30157 38.531 8.37284 38.2209 9.30316 37.7699C10.3462 37.2342 11.1074 36.5858 11.6994 35.7119C12.1787 35.0071 12.6861 33.8795 12.7989 33.1747C12.9117 32.4699 12.9117 31.3986 12.7989 30.7784C12.6861 30.1582 12.1787 29.0869 11.6994 28.3821C11.1074 27.5082 10.3462 26.8598 9.30316 26.3242C8.26008 25.8167 7.32976 25.563 6.48402 25.563C5.77923 25.5912 4.70796 25.7603 4.08775 25.9859ZM54.6913 26.3242C53.62 26.8598 52.8589 27.5082 52.2668 28.3821C51.7876 29.0869 51.3083 30.2146 51.1956 30.9194C51.0546 31.6242 51.0546 32.6954 51.1956 33.3156C51.3083 33.9358 51.7876 35.0071 52.2668 35.7119C52.8589 36.5858 53.62 37.2342 54.6913 37.7699C55.5934 38.2209 56.6929 38.531 57.3695 38.531C57.9897 38.531 59.061 38.3337 59.7657 38.1082C60.4423 37.8545 61.4572 37.2624 61.9647 36.755C62.5003 36.2475 63.1769 35.3454 63.4588 34.7252C63.7689 34.0486 63.9663 32.9492 63.9663 32.047C63.9663 31.1449 63.7689 30.0172 63.4588 29.3688C63.1769 28.7486 62.4157 27.7619 61.7673 27.1699C61.1189 26.6061 60.1322 25.9859 59.5402 25.8449C58.9764 25.6758 57.9897 25.563 57.3695 25.563C56.6929 25.563 55.6216 25.8731 54.6913 26.3242ZM37.7765 30.6093L36.9589 31.4268C36.9307 41.6603 36.8743 42.1395 36.2823 43.3236C35.944 44.0284 35.211 44.8741 34.6754 45.2406C34.1116 45.5789 33.2376 45.9454 32.702 46.03C32.1382 46.1427 31.2361 46.0581 30.644 45.889C30.0802 45.7199 29.2345 45.2688 28.8116 44.9023C28.135 44.3103 27.7121 44.1975 25.2877 44.1129C23.7935 44.0566 22.5531 44.1129 22.5531 44.2257C22.5531 44.3667 22.7223 44.9023 22.976 45.4379C23.2015 45.9736 23.9909 47.073 24.7239 47.8624C25.4568 48.6518 26.5563 49.5539 27.1201 49.8358C28.1068 50.3432 28.276 50.3432 29.3754 49.9486C30.052 49.6948 31.2079 49.4975 31.9972 49.4975C32.7584 49.4975 33.9424 49.6948 34.5908 49.9486C35.5212 50.2869 35.944 50.2869 36.4233 50.0331C36.7898 49.864 37.5509 49.3284 38.1711 48.8491C38.7632 48.3698 39.6653 47.4113 40.1163 46.7065C40.5956 46.0018 41.2158 44.705 41.4977 43.8028C41.8924 42.4778 42.0052 41.2092 42.0052 36.8396V31.4832C40.5674 30.0736 40.0318 29.7917 39.4398 29.7917C38.8477 29.7917 38.3121 30.0454 37.7765 30.6093ZM28.8962 51.922C28.135 52.3166 27.2329 53.0214 26.8664 53.5289C26.5281 54.0363 26.1052 54.8257 25.9361 55.3049C25.7387 55.756 25.5978 56.8554 25.5978 57.7012C25.5696 58.6315 25.7669 59.6464 26.077 60.2384C26.3308 60.7741 26.8946 61.5916 27.2893 62.0145C27.7121 62.4655 28.5579 63.0857 29.1781 63.424C29.9674 63.8469 30.8132 64.0161 31.9972 64.0161C33.1813 64.0161 34.027 63.8469 34.8164 63.424C35.4366 63.0857 36.2823 62.4655 36.677 62.0145C37.0999 61.5916 37.6355 60.7741 37.9174 60.2384C38.1993 59.6746 38.3967 58.6033 38.3967 57.7012C38.4249 56.6299 38.1993 55.7278 37.7483 54.7693C37.3818 54.0081 36.677 53.0496 36.2259 52.6831C35.7467 52.2884 34.9573 51.8092 34.4499 51.5837C33.9424 51.3863 32.8148 51.2172 31.9127 51.2172C30.785 51.2454 29.8829 51.4427 28.8962 51.922Z"/>
</mask>
<path d="M30.3621 0.162563C29.9393 0.275329 29.2345 0.585434 28.8116 0.839156C28.3887 1.06469 27.6839 1.62852 27.2893 2.07958C26.8664 2.50245 26.3026 3.32 26.0488 3.85564C25.7669 4.44765 25.5696 5.49074 25.5696 6.39286C25.5696 7.2386 25.7387 8.39445 25.9643 8.93009C26.1898 9.46572 26.6972 10.3115 27.0919 10.7625C27.4866 11.2136 28.3887 11.8902 29.0935 12.2567C29.9674 12.6513 30.926 12.8769 31.969 12.8769C33.0121 12.8769 33.9706 12.6513 34.8446 12.2567C35.5493 11.8902 36.4515 11.2418 36.8461 10.7625C37.2408 10.3115 37.7483 9.46572 37.9738 8.93009C38.1993 8.39445 38.3685 7.2386 38.3685 6.39286C38.3685 5.49074 38.1711 4.44765 37.8892 3.85564C37.6355 3.32 37.0717 2.50245 36.6488 2.07958C36.2541 1.62852 35.4084 1.0083 34.7882 0.698199C34.168 0.388094 33.0967 0.0779889 32.3919 0.0216061C31.6871 -0.0347767 30.785 0.0216061 30.3621 0.162563ZM26.5845 14.6811C25.8515 15.2168 24.752 16.2598 24.16 16.9928C23.5398 17.7822 22.835 19.1636 22.5249 20.2066C22.0175 21.8136 21.9611 22.8284 21.9611 28.4667V34.8662H27.0355C27.0355 22.3492 27.0637 21.9827 27.6558 20.7705C28.0222 20.0657 28.7552 19.2199 29.2909 18.8535C29.8265 18.5152 30.7286 18.1487 31.2643 18.0359C31.7999 17.9513 32.7302 18.0359 33.3222 18.2051C33.8861 18.3742 34.76 18.8253 35.211 19.2199C35.9722 19.8683 36.2823 19.9247 38.735 19.9247C40.2009 19.9247 41.4132 19.8683 41.4132 19.7838C41.4132 19.6992 41.2158 19.1918 40.9903 18.6561C40.7647 18.1205 39.9754 17.021 39.2424 16.2317C38.4812 15.4423 37.41 14.5402 36.8461 14.2583C35.8594 13.7508 35.6903 13.7508 34.5908 14.1455C33.9142 14.3992 32.7584 14.5684 31.969 14.5684C31.2079 14.5684 29.9956 14.371 29.2909 14.1455C28.5861 13.92 27.9941 13.7226 27.9941 13.7226C27.9659 13.7226 27.3456 14.1455 26.5845 14.6811ZM29.0935 24.6327L29.1499 27.1135C40.8211 27.3391 43.161 27.5082 43.6121 27.7619C43.9504 27.9311 44.5706 28.5795 45.0216 29.1433C45.6701 30.0172 45.7828 30.4401 45.7828 32.0752C45.7828 33.7667 45.6982 34.0768 44.8807 35.1199C43.9786 36.2475 43.9504 36.3603 43.9504 38.9539C43.9504 40.4199 44.0068 41.6321 44.0913 41.6321C44.1759 41.6321 44.8243 41.322 45.5855 40.9555C46.3185 40.589 47.4461 39.7151 48.0945 39.0385C48.7147 38.3901 49.4759 37.4034 49.786 36.9241C50.2652 36.0502 50.2652 35.9374 49.8142 34.5279C49.5323 33.7103 49.3349 32.6672 49.3067 32.188C49.3067 31.7087 49.5323 30.6375 49.786 29.7917C50.2371 28.2694 50.2371 28.2412 49.5323 26.9726C49.1376 26.2678 48.3482 25.2811 47.7844 24.8018C47.2206 24.2944 46.0929 23.5332 45.3036 23.1104L43.8094 22.321L29.0089 22.1518L29.0935 24.6327ZM18.4654 23.054C17.8451 23.3923 16.8303 24.0971 16.2382 24.6609C15.6462 25.2529 14.8005 26.2396 14.4058 26.888L13.6728 28.0438C14.4058 30.3837 14.6313 31.4268 14.6313 31.9061C14.6313 32.3571 14.434 33.4566 14.1803 34.3023C13.7292 35.8247 13.7292 35.8529 14.434 37.1215C14.8287 37.8263 15.5898 38.813 16.1537 39.2922C16.7175 39.7997 17.8452 40.5608 18.6627 40.9837L20.1568 41.7731L34.9573 41.914L34.8164 37.1497C22.6941 36.9523 21.3973 36.8396 20.6361 36.4731C20.1287 36.1912 19.3675 35.5146 18.9446 34.9507C18.2962 34.0768 18.1834 33.6539 18.1834 32.0188C18.1834 30.2992 18.268 30.0172 19.0856 28.9742C19.9877 27.8465 20.0159 27.7337 20.0159 25.1401C20.0159 23.6742 19.9031 22.462 19.7904 22.462C19.6776 22.4901 19.0856 22.7439 18.4654 23.054ZM4.08775 25.9859C3.46754 26.2114 2.53723 26.8034 2.00159 27.3109C1.46595 27.8183 0.81755 28.7486 0.535636 29.3688C0.225531 30.0454 0 31.1167 0 32.047C0 32.921 0.225531 34.0768 0.507445 34.7252C0.789359 35.3454 1.57872 36.3321 2.25531 36.9241C2.9601 37.5162 3.94679 38.1082 4.51062 38.2491C5.04626 38.3901 6.00477 38.531 6.62498 38.531C7.30157 38.531 8.37284 38.2209 9.30316 37.7699C10.3462 37.2342 11.1074 36.5858 11.6994 35.7119C12.1787 35.0071 12.6861 33.8795 12.7989 33.1747C12.9117 32.4699 12.9117 31.3986 12.7989 30.7784C12.6861 30.1582 12.1787 29.0869 11.6994 28.3821C11.1074 27.5082 10.3462 26.8598 9.30316 26.3242C8.26008 25.8167 7.32976 25.563 6.48402 25.563C5.77923 25.5912 4.70796 25.7603 4.08775 25.9859ZM54.6913 26.3242C53.62 26.8598 52.8589 27.5082 52.2668 28.3821C51.7876 29.0869 51.3083 30.2146 51.1956 30.9194C51.0546 31.6242 51.0546 32.6954 51.1956 33.3156C51.3083 33.9358 51.7876 35.0071 52.2668 35.7119C52.8589 36.5858 53.62 37.2342 54.6913 37.7699C55.5934 38.2209 56.6929 38.531 57.3695 38.531C57.9897 38.531 59.061 38.3337 59.7657 38.1082C60.4423 37.8545 61.4572 37.2624 61.9647 36.755C62.5003 36.2475 63.1769 35.3454 63.4588 34.7252C63.7689 34.0486 63.9663 32.9492 63.9663 32.047C63.9663 31.1449 63.7689 30.0172 63.4588 29.3688C63.1769 28.7486 62.4157 27.7619 61.7673 27.1699C61.1189 26.6061 60.1322 25.9859 59.5402 25.8449C58.9764 25.6758 57.9897 25.563 57.3695 25.563C56.6929 25.563 55.6216 25.8731 54.6913 26.3242ZM37.7765 30.6093L36.9589 31.4268C36.9307 41.6603 36.8743 42.1395 36.2823 43.3236C35.944 44.0284 35.211 44.8741 34.6754 45.2406C34.1116 45.5789 33.2376 45.9454 32.702 46.03C32.1382 46.1427 31.2361 46.0581 30.644 45.889C30.0802 45.7199 29.2345 45.2688 28.8116 44.9023C28.135 44.3103 27.7121 44.1975 25.2877 44.1129C23.7935 44.0566 22.5531 44.1129 22.5531 44.2257C22.5531 44.3667 22.7223 44.9023 22.976 45.4379C23.2015 45.9736 23.9909 47.073 24.7239 47.8624C25.4568 48.6518 26.5563 49.5539 27.1201 49.8358C28.1068 50.3432 28.276 50.3432 29.3754 49.9486C30.052 49.6948 31.2079 49.4975 31.9972 49.4975C32.7584 49.4975 33.9424 49.6948 34.5908 49.9486C35.5212 50.2869 35.944 50.2869 36.4233 50.0331C36.7898 49.864 37.5509 49.3284 38.1711 48.8491C38.7632 48.3698 39.6653 47.4113 40.1163 46.7065C40.5956 46.0018 41.2158 44.705 41.4977 43.8028C41.8924 42.4778 42.0052 41.2092 42.0052 36.8396V31.4832C40.5674 30.0736 40.0318 29.7917 39.4398 29.7917C38.8477 29.7917 38.3121 30.0454 37.7765 30.6093ZM28.8962 51.922C28.135 52.3166 27.2329 53.0214 26.8664 53.5289C26.5281 54.0363 26.1052 54.8257 25.9361 55.3049C25.7387 55.756 25.5978 56.8554 25.5978 57.7012C25.5696 58.6315 25.7669 59.6464 26.077 60.2384C26.3308 60.7741 26.8946 61.5916 27.2893 62.0145C27.7121 62.4655 28.5579 63.0857 29.1781 63.424C29.9674 63.8469 30.8132 64.0161 31.9972 64.0161C33.1813 64.0161 34.027 63.8469 34.8164 63.424C35.4366 63.0857 36.2823 62.4655 36.677 62.0145C37.0999 61.5916 37.6355 60.7741 37.9174 60.2384C38.1993 59.6746 38.3967 58.6033 38.3967 57.7012C38.4249 56.6299 38.1993 55.7278 37.7483 54.7693C37.3818 54.0081 36.677 53.0496 36.2259 52.6831C35.7467 52.2884 34.9573 51.8092 34.4499 51.5837C33.9424 51.3863 32.8148 51.2172 31.9127 51.2172C30.785 51.2454 29.8829 51.4427 28.8962 51.922Z" stroke="#3CAA35" stroke-width="3" mask="url(#path-1-inside-1_1_507)"/>
</svg>
