<svg width="64" height="64" viewBox="0 0 64 64" fill="none" xmlns="http://www.w3.org/2000/svg">
<path d="M22.7958 0.126631C22.5597 0.201211 22.4105 0.375231 22.3235 0.636261C22.2489 0.860001 22.1992 2.01599 22.1992 3.19684C22.1992 4.43985 22.2614 5.47154 22.3359 5.67042C22.4105 5.8693 22.5597 6.08061 22.6715 6.16762C22.8207 6.26706 23.4671 6.31678 24.6479 6.32921H26.4254L26.4378 17.5784C25.2197 17.9388 24.5361 18.1501 24.1259 18.2869C23.7157 18.436 22.8456 18.7841 22.1992 19.07C21.5528 19.3683 20.5087 19.9028 19.8997 20.2757C19.2782 20.6362 18.3459 21.2577 17.8114 21.6554C17.2894 22.0407 16.4565 22.7368 15.9593 23.2092C15.4746 23.6691 14.6542 24.5143 14.1446 25.0985C13.6349 25.6827 12.827 26.7393 12.3546 27.4602C11.8823 28.1812 11.1862 29.3745 10.8133 30.1327C10.4528 30.8909 9.93079 32.1712 9.65733 32.9916C9.38387 33.812 9.04826 35.0425 8.91153 35.7262C8.7748 36.4098 8.60078 37.7398 8.5262 38.6845C8.43918 39.8405 8.43918 40.9344 8.5262 42.0655C8.60078 42.9853 8.79966 44.4272 8.97368 45.2724C9.1477 46.1052 9.47088 47.2612 9.66976 47.8455C9.88107 48.4297 10.1794 49.2003 10.341 49.5608C10.602 50.1201 10.6766 50.1947 10.9128 50.1201C11.0743 50.0829 11.497 49.9088 11.845 49.7472C12.2055 49.5981 12.5038 49.4241 12.5038 49.3743C12.5038 49.3122 12.3422 48.8896 12.1558 48.4048C11.9569 47.92 11.6213 46.9256 11.41 46.1674C11.1986 45.4092 10.9252 44.2407 10.8133 43.5571C10.6766 42.7367 10.6144 41.6056 10.6144 40.2631C10.6144 38.7715 10.689 37.8144 10.8755 36.7827C11.0122 35.9996 11.2857 34.8188 11.4845 34.1724C11.6958 33.5261 12.0687 32.482 12.3422 31.8729C12.6032 31.2638 13.1004 30.2818 13.436 29.6976C13.7841 29.1134 14.3807 28.206 14.7661 27.6715C15.1638 27.1495 15.9221 26.2545 16.4441 25.7076C16.9786 25.1482 17.799 24.3776 18.2838 23.9798C18.7685 23.5945 19.5765 22.9979 20.0861 22.6498C20.5957 22.3018 21.5777 21.7424 22.2614 21.3944C22.945 21.0588 23.927 20.6237 24.4366 20.4373C24.9462 20.2508 25.9779 19.9401 26.7362 19.7412C27.7306 19.4802 28.1656 19.3061 28.3272 19.1073C28.5385 18.8462 28.5509 18.3988 28.5385 12.5815V6.32921H35.0021C34.9897 18.3988 35.0021 18.8462 35.2134 19.1073C35.375 19.3061 35.7355 19.4677 36.4316 19.6418C36.9785 19.7785 37.8735 20.0271 38.4204 20.2135C38.9673 20.3876 40.173 20.8972 41.0928 21.3447C42.0126 21.7921 42.8082 22.1775 42.8579 22.2023C42.92 22.2272 43.1811 21.8294 43.4545 21.3447C43.728 20.8475 43.9393 20.4248 43.9269 20.4124C43.902 20.4 43.1935 20.0271 42.3358 19.592C41.4782 19.1446 40.1979 18.5852 39.4769 18.3366C38.756 18.1004 37.9356 17.8394 37.6373 17.7648L37.1152 17.6405V6.32921C40.0736 6.31678 40.7199 6.26706 40.8691 6.16762C40.981 6.08061 41.1301 5.8693 41.2047 5.68285C41.2793 5.47154 41.3414 4.43985 41.3414 3.18441C41.3414 2.01599 41.2917 0.860002 41.2171 0.648691C41.1301 0.350371 40.981 0.201211 40.6826 0.114201C40.434 0.0271907 37.2022 -0.0100994 31.7082 0.00233063C26.848 0.00233063 22.9823 0.0644807 22.7834 0.126631H22.7958ZM50.8007 28.5914C50.3532 28.8773 49.9679 29.1259 49.9306 29.1507C49.8933 29.1756 49.9306 29.2626 50.0176 29.3496C50.0922 29.4366 50.4526 30.0954 50.8007 30.8163C51.1611 31.5373 51.6335 32.6808 51.8696 33.3645C52.0934 34.0481 52.3917 35.1668 52.5284 35.8505C52.6652 36.5341 52.8392 37.7647 52.9138 38.5851C52.9883 39.5422 52.9883 40.636 52.9138 41.6304C52.8516 42.4881 52.7522 43.4949 52.6776 43.8678C52.6154 44.2407 52.4539 44.999 52.3047 45.5459C52.168 46.0928 51.8945 46.9878 51.6956 47.5347C51.4967 48.0816 51.0741 49.0512 50.7509 49.6851C50.4402 50.3066 49.9679 51.1518 49.7193 51.5496C49.4707 51.9349 48.9237 52.7056 48.5135 53.2525C48.0909 53.7994 47.2581 54.7441 46.6366 55.3532C46.0151 55.9622 45.0953 56.7826 44.5857 57.168C44.076 57.5533 43.1811 58.1499 42.5969 58.498C42.0126 58.846 41.155 59.3184 40.6702 59.5297C40.1854 59.7534 39.3526 60.089 38.8057 60.2755C38.2588 60.4743 37.3638 60.7478 36.8169 60.8845C36.27 61.0213 35.4372 61.1829 34.9524 61.2574C34.4676 61.3196 33.4359 61.419 32.6528 61.4687C31.7952 61.5185 30.6765 61.4936 29.8561 61.4066C29.0979 61.3196 27.9792 61.1456 27.3701 61.0088C26.7486 60.8845 25.692 60.5862 25.0084 60.35C24.3247 60.1263 23.4049 59.7658 22.9574 59.567C22.51 59.3556 21.615 58.8833 20.9686 58.4855C20.3223 58.1002 19.7629 57.777 19.7256 57.777C19.6883 57.777 19.4273 58.0878 19.129 58.4731C18.8431 58.846 18.5821 59.2313 18.5448 59.3184C18.5199 59.4054 18.868 59.7037 19.39 60.0269C19.8872 60.3376 20.8692 60.8721 21.5901 61.2326C22.3111 61.5806 23.4546 62.0654 24.1383 62.3016C24.8219 62.5377 26.0277 62.8733 26.8107 63.0474C27.5938 63.2338 28.9736 63.4327 29.8561 63.5073C30.7386 63.5818 32.0811 63.6191 32.8393 63.5694C33.5851 63.5321 34.7411 63.4078 35.3875 63.3084C36.0338 63.2089 37.0158 63.0101 37.5627 62.8733C38.1096 62.7366 38.9424 62.4756 39.4272 62.3016C39.912 62.1275 40.7945 61.7671 41.416 61.4812C42.0375 61.2077 43.007 60.7105 43.5913 60.3625C44.1755 60.0144 45.145 59.3681 45.7665 58.9082C46.388 58.4607 47.4446 57.5284 48.1282 56.8448C48.8119 56.1736 49.7193 55.1667 50.1294 54.6198C50.5521 54.0729 51.1363 53.2401 51.447 52.7553C51.7578 52.2705 52.2798 51.3507 52.603 50.7044C52.9262 50.058 53.3861 49.0263 53.6223 48.4048C53.8584 47.7957 54.1816 46.7516 54.3432 46.1053C54.5048 45.4589 54.7037 44.5639 54.7783 44.1164C54.8528 43.669 54.9647 42.6124 55.0269 41.7547C55.089 40.8101 55.089 39.5919 55.0144 38.6472C54.9523 37.7896 54.8156 36.6212 54.7161 36.0369C54.6167 35.4527 54.3556 34.3713 54.1443 33.6131C53.933 32.8673 53.5104 31.6864 53.2245 31.0028C52.9262 30.3191 52.4911 29.3869 52.2425 28.927C51.9939 28.4546 51.7578 28.0817 51.6956 28.0817C51.6459 28.0817 51.2481 28.3179 50.8007 28.5914Z" fill="#3CAA35"/>
<path fill-rule="evenodd" clip-rule="evenodd" d="M30.754 23.297L30.7168 22.2778L30.6795 21.2461H32.8547L32.8299 23.297H30.754ZM58.6221 23.0484L59.3306 22.3399C59.716 21.9422 60.064 21.619 60.1013 21.619C60.1386 21.619 60.9093 22.3648 61.8166 23.2722C62.7116 24.1796 63.4823 25.0621 63.532 25.2237C63.5817 25.4101 63.532 25.696 63.4201 25.9073C63.3207 26.1187 62.5252 26.9888 60.1137 29.3878L58.6221 27.8962L59.9646 26.4667H43.4575V24.3536L59.9273 24.366L58.6221 23.0484ZM27.6714 27.7097C27.6838 26.1684 27.6963 26.0689 27.9822 25.783L28.2805 25.4723H31.823C33.7745 25.4723 35.465 25.522 35.5769 25.5717C35.6888 25.6215 35.8628 25.8203 35.9498 26.0068C36.0617 26.243 36.1238 26.852 36.1238 27.9583C36.1238 29.3753 36.1487 29.5991 36.3351 29.6985C36.5091 29.7855 36.7702 29.5991 37.7397 28.642C38.585 27.8091 39.0076 27.4735 39.2313 27.4735C39.3929 27.4735 39.6166 27.5232 39.7285 27.5854C39.828 27.66 40.9839 28.7911 42.3015 30.1087C43.6191 31.4263 44.7378 32.6071 44.7751 32.7439C44.8124 32.893 44.8124 33.1043 44.7751 33.2411C44.7502 33.3902 44.2033 33.9744 43.5818 34.5462C42.923 35.1553 42.4631 35.6898 42.488 35.7892C42.5128 35.9508 42.8609 35.9881 44.3028 36.0378C46.0181 36.1 46.0927 36.1124 46.3288 36.4107C46.5526 36.709 46.565 36.9452 46.565 40.3262L46.565 40.3331C46.5526 43.8936 46.5524 43.9435 46.2791 44.2168C46.0181 44.4902 45.9062 44.5026 44.2903 44.5026C42.7863 44.5026 42.575 44.5275 42.4631 44.714C42.3761 44.888 42.5626 45.149 43.5197 46.1061C44.5389 47.1502 44.6881 47.3491 44.6881 47.722C44.6881 48.1322 44.5016 48.3559 42.1772 50.6804C39.8031 53.0545 39.6291 53.1912 39.194 53.1912C38.7714 53.1912 38.6098 53.0794 37.5781 52.0725C36.7826 51.3019 36.36 50.9787 36.2108 51.016C36.0244 51.0781 35.9995 51.277 35.9871 52.7935C35.9871 53.937 35.9374 54.571 35.8379 54.7077C35.7509 54.8196 35.5272 54.9811 35.3407 55.0557C35.1294 55.1303 33.8118 55.18 31.7733 55.18C29.7224 55.18 28.4172 55.1303 28.1935 55.0557C28.007 54.9811 27.7833 54.8196 27.6963 54.7077C27.5968 54.571 27.5471 53.9246 27.5471 52.7313C27.5471 51.1527 27.5222 50.9538 27.3234 50.8917C27.1742 50.8544 26.764 51.1776 25.9561 51.9482C24.9244 52.9675 24.7628 53.0669 24.3402 53.0669C23.9051 53.0669 23.7311 52.9302 21.357 50.5561C19.1196 48.3187 18.8461 47.9955 18.8461 47.635C18.8461 47.287 19.0201 47.0508 20.0145 46.0191C20.9716 45.0247 21.1581 44.7761 21.0338 44.6145C20.9219 44.4778 20.5987 44.4405 19.5297 44.4405C18.7715 44.4405 17.9636 44.3908 17.7274 44.3411C17.4788 44.3038 17.2178 44.1546 17.1308 44.0303C17.0065 43.8687 16.9692 42.924 16.9692 40.2391C16.9816 38.1136 17.0313 36.5599 17.1059 36.4107C17.168 36.274 17.4042 36.1124 17.628 36.0378C17.8517 35.9757 18.7218 35.9135 19.5546 35.9135C20.7976 35.9135 21.0959 35.8886 21.1456 35.7271C21.1829 35.6152 20.7852 35.0931 20.0891 34.3598C19.1444 33.3778 18.9704 33.1168 18.9704 32.7811C18.9704 32.4207 19.2314 32.1099 21.4813 29.8725C22.861 28.5052 24.104 27.3368 24.2159 27.2995C24.3402 27.2498 24.6136 27.2995 24.8374 27.3865C25.0611 27.486 25.695 28.0204 26.242 28.5674C27.0499 29.3878 27.2736 29.5493 27.4477 29.4499C27.6341 29.3505 27.6714 29.1267 27.6714 27.7097ZM12.6311 41.3951V40.3386V39.282H14.7442V41.3951H12.6311ZM48.8024 41.3951V40.3386V39.282H50.9155V41.3951H48.8024ZM0.0892098 53.6636C0.16379 53.5144 0.93445 52.6816 1.79212 51.7991C2.66222 50.929 3.39559 50.2205 3.43288 50.2205C3.45774 50.2205 3.81821 50.5436 4.92448 51.6499L3.49503 53.0794H20.0891V55.1925H3.61933L4.92448 56.4976L3.43288 57.9892L1.75483 56.3112C0.636129 55.1925 0.051919 54.5212 0.0146289 54.2851C-0.0226611 54.0986 0.0146297 53.8252 0.0892098 53.6636ZM30.6546 59.4187L30.6795 58.3621L30.7168 57.3056H32.8299L32.805 59.3565L30.6546 59.4187ZM29.3734 30.8675C29.6344 30.594 29.6593 30.4573 29.6593 29.0775V27.5859H33.8855V28.9781C33.8855 29.8606 33.9476 30.4946 34.0471 30.6934C34.1341 30.8675 34.4572 31.1409 34.7556 31.3025C35.0663 31.4765 35.6132 31.7127 35.9613 31.837C36.4709 32.011 36.6946 32.0359 36.9557 31.924C37.1546 31.8619 37.7388 31.3647 39.2304 29.8855L40.6598 31.3149C41.4429 32.098 42.0893 32.7941 42.0893 32.8687C42.0893 32.9433 41.6418 33.4405 41.0949 33.9874C40.3242 34.7456 40.1005 35.0564 40.1005 35.3174C40.1005 35.5163 40.2745 36.1005 40.4858 36.6226C40.7095 37.157 41.0079 37.7164 41.1694 37.8656C41.4429 38.1266 41.5796 38.1514 44.451 38.1514V42.3777L42.9594 42.4025C41.5548 42.4398 41.4553 42.4522 41.1694 42.7506C41.0079 42.9246 40.722 43.4218 40.5355 43.8693C40.3491 44.3167 40.1751 44.8885 40.1502 45.1371C40.1005 45.5846 40.1626 45.6716 42.1514 47.735L39.1682 50.7058L38.1117 49.6492C37.3534 48.891 36.9681 48.5927 36.7444 48.5927C36.5703 48.5927 35.9364 48.804 35.3398 49.065C34.594 49.3757 34.1838 49.6243 34.0719 49.8357C33.9476 50.047 33.8979 50.5939 33.8855 53.0675H29.6593V51.6007C29.6717 50.2707 29.6468 50.1091 29.3858 49.7859C29.2242 49.5746 28.7519 49.2639 28.3168 49.065C27.8942 48.8785 27.31 48.6797 26.4896 48.5678L24.3765 50.7058L21.3933 47.735L22.4126 46.7033C23.2329 45.8829 23.4318 45.597 23.4443 45.2987C23.4443 45.0998 23.2329 44.4286 22.9719 43.8195C22.5742 42.8749 22.4499 42.6884 22.1142 42.5392C21.8656 42.4398 21.1944 42.3777 19.0938 42.3777V38.1514H20.5854H20.5854C22.0521 38.1514 22.077 38.1514 22.4126 37.8034C22.6114 37.617 22.9098 37.0825 23.0962 36.6226C23.2951 36.1626 23.4443 35.6033 23.4443 35.392C23.4443 35.0439 23.2827 34.8202 21.3312 32.8687L24.3144 29.8855L25.2715 30.8426C25.806 31.3647 26.3902 31.8619 26.5766 31.924C26.8749 32.0359 27.0987 31.9862 28.0185 31.6133C28.6151 31.3771 29.2242 31.0415 29.3734 30.8675Z" fill="#3CAA35"/>
<path fill-rule="evenodd" clip-rule="evenodd" d="M29.8419 36.5696C30.1775 36.3955 30.6871 36.2091 30.9606 36.1594C31.2341 36.0972 31.7686 36.0848 32.1415 36.1097C32.5144 36.147 33.1359 36.321 33.5088 36.4826C33.8817 36.6566 34.4037 37.0046 34.6647 37.2532C34.9258 37.5018 35.2614 37.9369 35.423 38.2103C35.5846 38.4838 35.7835 38.981 35.8705 39.329C35.9575 39.6771 36.0072 40.2489 35.9699 40.6342C35.9326 41.0071 35.7586 41.641 35.5721 42.0263C35.3981 42.4241 35.0128 42.9835 34.7145 43.2693C34.4286 43.5677 33.9065 43.9406 33.5709 44.1146C33.0364 44.3756 32.7754 44.4253 31.7686 44.4253C30.7493 44.4253 30.5007 44.3756 29.9786 44.1146C29.643 43.9406 29.121 43.5677 28.8226 43.2693C28.5368 42.9835 28.139 42.4241 27.965 42.0388C27.7785 41.641 27.6045 41.0071 27.5672 40.6342C27.5299 40.2489 27.5796 39.6771 27.6667 39.329C27.7537 38.9934 27.9401 38.5087 28.0768 38.2725C28.2136 38.0363 28.5243 37.6261 28.7729 37.3651C29.0215 37.1041 29.4939 36.7436 29.8419 36.5696ZM30.4393 38.7057C30.6879 38.5068 31.0236 38.2955 31.1727 38.2458C31.3343 38.196 31.7072 38.1836 32.018 38.2209C32.3784 38.2582 32.7265 38.3949 33.0124 38.6187C33.2485 38.8175 33.5468 39.1656 33.6587 39.4018C33.783 39.6379 33.8825 40.0357 33.8825 40.2843C33.8825 40.5453 33.7706 40.9804 33.6339 41.2538C33.4971 41.5273 33.1988 41.8753 32.9875 42.0245C32.6643 42.2482 32.4033 42.3104 31.7694 42.3104C31.1354 42.3104 30.8744 42.2482 30.5636 42.0245C30.3399 41.8753 30.0416 41.5273 29.9049 41.2538C29.7681 40.9804 29.6562 40.5577 29.6562 40.3216C29.6562 40.0854 29.7308 39.7001 29.8178 39.4763C29.9048 39.265 30.1907 38.9046 30.4393 38.7057Z" fill="#3CAA35"/>
</svg>
