<svg width="63" height="65" viewBox="0 0 63 65" fill="none" xmlns="http://www.w3.org/2000/svg">
<path fill-rule="evenodd" clip-rule="evenodd" d="M37.9291 0.132071C37.8634 0.0581723 37.7895 -0.00751498 37.7648 0.000695947C37.7402 0.000695947 37.6006 0.197758 37.4446 0.435875C37.2886 0.665781 36.8698 1.2816 36.5004 1.79889C36.0734 2.4065 35.6464 2.89915 35.3016 3.17832C35.006 3.42465 34.5133 3.77772 34.1931 3.96657C33.8729 4.14721 33.3638 4.40175 33.0436 4.53313C32.7233 4.6645 32.0254 4.87799 31.4835 5.00936C30.9416 5.14073 30.0384 5.30495 29.4718 5.37064C28.9053 5.44454 27.6161 5.57591 26.598 5.66623C25.5798 5.76476 24.3236 5.91256 23.8063 6.00288C23.289 6.08499 22.5828 6.241 22.2462 6.33953C21.9095 6.43806 21.3348 6.64333 20.9735 6.79113C20.6122 6.94714 19.9471 7.31663 19.4955 7.61222C18.9454 7.98171 18.3542 8.48258 17.6891 9.14767C17.0979 9.74706 16.4903 10.4532 16.1701 10.9212C15.8827 11.3482 15.4722 12.0708 15.2505 12.5224C15.037 12.974 14.7825 13.639 14.6839 14.0003C14.5526 14.4848 14.5033 14.9035 14.5033 15.5604C14.5033 16.2912 14.5361 16.5703 14.6839 16.9973C14.7825 17.2929 15.037 17.843 15.2341 18.2289C15.4393 18.6149 15.5953 18.9515 15.5953 18.9844C15.5953 19.0254 15.3162 19.3703 14.9713 19.7644C14.6265 20.1667 14.1174 20.7908 13.8464 21.1685C13.5673 21.538 13.3209 21.8418 13.2963 21.8418C13.2717 21.85 13.1074 21.4641 12.935 21.0042C12.7626 20.5362 12.4259 19.7315 12.1878 19.2143C11.9579 18.697 11.5309 17.8595 11.2518 17.3668C10.9644 16.8659 10.5621 16.2255 10.365 15.9299C10.1597 15.6343 9.69169 15.0103 9.3222 14.534C8.96092 14.0578 8.00845 13.0232 7.22021 12.235C6.43196 11.4385 5.40559 10.5107 4.94578 10.1576C4.47776 9.81275 4.08363 9.53358 4.059 9.54179C4.03437 9.55821 4.42849 10.0673 4.92936 10.6749C5.43023 11.2825 6.28416 12.3746 6.82608 13.0971C7.37621 13.8197 8.12341 14.8707 8.4929 15.4372C8.86239 16.0038 9.38789 16.8495 9.65885 17.3257C9.92981 17.802 10.3157 18.4999 10.5046 18.8858C10.6934 19.2717 11.0301 20.0107 11.2353 20.528C11.4488 21.0453 11.7608 21.9157 11.9333 22.4576L12.2453 23.4429C10.9069 26.1771 10.3404 27.458 10.1351 28.041C9.9216 28.624 9.62601 29.5682 9.47 30.1348C9.31399 30.7013 9.10051 31.621 8.99377 32.1875C8.87881 32.7541 8.74744 33.567 8.68175 33.9939C8.61606 34.5112 8.57501 35.6361 8.57501 37.3193C8.57501 39.3392 8.60785 40.07 8.72281 40.85C8.80491 41.392 8.96092 42.2623 9.07588 42.7796C9.19083 43.2969 9.3961 44.1098 9.52748 44.586C9.66706 45.0622 9.94623 45.908 10.1515 46.4745C10.3568 47.0411 10.8084 48.0921 11.1532 48.8146C11.5063 49.5372 12.0236 50.5143 12.311 50.9905C12.5902 51.4668 13.0664 52.2058 13.3702 52.6327C13.6658 53.0597 14.1584 53.7248 14.4705 54.1107C14.7825 54.4966 15.3737 55.1781 15.7842 55.6215C16.203 56.0731 16.9994 56.8449 17.566 57.3376C18.1325 57.8302 18.9618 58.5035 19.4134 58.832C19.865 59.1604 20.604 59.6613 21.0556 59.9487C21.5072 60.236 22.3201 60.6958 22.862 60.975C23.4039 61.2624 24.2332 61.6565 24.7095 61.8618C25.1857 62.0589 26.0725 62.3955 26.6801 62.609C27.2877 62.8143 28.2155 63.0934 28.7328 63.2248C29.2501 63.348 29.9727 63.5122 30.334 63.5861C30.6952 63.66 31.3932 63.7749 31.894 63.8406C32.3949 63.9145 33.6265 63.9966 34.6447 64.0213C35.8271 64.0541 36.8781 64.0377 37.5596 63.972C38.1425 63.9145 39.0868 63.7996 39.6534 63.701C40.2199 63.6107 41.1067 63.4301 41.624 63.3069C42.1413 63.1755 42.9377 62.9539 43.3893 62.8143C43.8409 62.6665 44.6374 62.3873 45.1547 62.182C45.672 61.9768 46.723 61.4923 47.4948 61.0982C48.2666 60.7123 49.4244 60.039 50.0812 59.6038C50.7381 59.1768 51.6577 58.5117 52.134 58.134C52.6102 57.7481 53.4395 57.0174 53.9732 56.4919C54.5069 55.9746 55.2705 55.1781 55.6564 54.7265C56.0424 54.2749 56.65 53.5195 56.9948 53.0433C57.3397 52.567 57.8652 51.7706 58.169 51.2779C58.4728 50.7853 58.9572 49.8903 59.2528 49.3073C59.5484 48.7243 59.9508 47.854 60.1396 47.3777C60.3367 46.9015 60.6405 46.0558 60.8211 45.4892C61.0018 44.9227 61.2317 44.1673 61.322 43.806C61.4123 43.4447 61.5601 42.7632 61.6504 42.287C61.749 41.8107 61.8803 40.9814 61.946 40.4395C62.0199 39.8976 62.0938 38.8055 62.1267 38.0173C62.1513 37.1469 62.1349 36.0795 62.0774 35.3077C62.0199 34.6097 61.8803 33.5013 61.7736 32.8444C61.6668 32.1875 61.4616 31.2186 61.3302 30.6849C61.1906 30.1594 60.9771 29.3794 60.8375 28.9606C60.7062 28.5501 60.4106 27.7454 60.1807 27.1789C59.9425 26.6123 59.4745 25.6024 59.1297 24.9209C58.7848 24.2476 58.1444 23.1555 57.7092 22.4986C57.2822 21.8418 56.6171 20.9221 56.2394 20.4459C55.8617 19.9697 54.9585 18.9926 54.236 18.2618C53.5052 17.5392 52.5281 16.636 52.0518 16.2583C51.5756 15.8806 50.7053 15.2566 50.1223 14.8707C49.5311 14.4848 48.6279 13.9346 48.1106 13.6555C47.5933 13.3763 46.7065 12.9411 46.14 12.703C45.5734 12.4567 44.6702 12.1036 44.1283 11.9147C43.5864 11.7259 42.6586 11.4385 42.0756 11.2825C41.4926 11.1347 40.4744 10.913 39.8176 10.8063C39.1607 10.6913 38.3478 10.5846 38.0112 10.5599C37.4775 10.5189 37.5678 10.5517 38.7091 10.7898C39.4317 10.9376 40.3513 11.1593 40.7618 11.2743C41.1724 11.3892 41.9278 11.6356 42.4451 11.8162C42.9624 11.9886 43.7424 12.2924 44.1694 12.4813C44.5963 12.6619 45.4338 13.0643 46.0168 13.3763C46.5998 13.6801 47.4701 14.1645 47.93 14.4601C48.398 14.7475 49.1944 15.2976 49.6953 15.6753C50.2044 16.0531 50.968 16.6607 51.395 17.0384C51.8219 17.4079 52.5445 18.0976 52.9961 18.5656C53.4477 19.0336 54.1456 19.8301 54.5398 20.3227C54.9421 20.8236 55.5743 21.6857 55.952 22.2523C56.3215 22.8189 56.8963 23.7631 57.2083 24.3461C57.5285 24.9291 57.9883 25.8569 58.2183 26.3988C58.4482 26.9407 58.8587 28.0328 59.1132 28.821C59.376 29.6093 59.688 30.6849 59.803 31.2022C59.9179 31.7195 60.0657 32.4749 60.1396 32.8854C60.2053 33.2878 60.3202 34.1992 60.3859 34.8971C60.4516 35.5951 60.5091 36.6543 60.5091 37.2372C60.5091 37.8202 60.468 38.748 60.427 39.29C60.3777 39.8319 60.2628 40.7351 60.1725 41.3016C60.0821 41.8682 59.8604 42.8781 59.688 43.5597C59.5156 44.2329 59.1871 45.3086 58.949 45.9408C58.7191 46.5731 58.2511 47.6405 57.9227 48.322C57.5942 48.9953 57.0605 49.9806 56.7321 50.4979C56.4036 51.0152 55.8371 51.8527 55.4594 52.3453C55.0899 52.838 54.433 53.6345 54.006 54.1107C53.5791 54.5869 52.9715 55.211 52.6595 55.4983C52.3474 55.7939 51.7809 56.2948 51.395 56.615C51.0091 56.9352 50.3768 57.4197 49.9827 57.7071C49.5804 57.9862 48.7921 58.5035 48.2173 58.8484C47.6344 59.1932 46.723 59.6859 46.181 59.9487C45.6391 60.2032 44.7523 60.5809 44.2104 60.7862C43.6685 60.9914 42.8392 61.2706 42.363 61.4102C41.8867 61.5416 41.1477 61.7386 40.7208 61.829C40.2938 61.9275 39.4563 62.0753 38.8733 62.1656C38.1836 62.2723 37.1737 62.3462 36.0405 62.3791C34.9813 62.4037 33.8482 62.3873 33.2078 62.3298C32.6248 62.2806 31.7134 62.1656 31.1961 62.0753C30.6788 61.9932 29.8495 61.8207 29.3486 61.7058C28.8478 61.5826 27.961 61.3281 27.378 61.131C26.795 60.934 25.8672 60.5891 25.3253 60.351C24.7834 60.1211 23.913 59.7023 23.3957 59.4232C22.8784 59.144 21.9752 58.5939 21.384 58.1997C20.8011 57.8138 20.0046 57.2391 19.6187 56.9352C19.2328 56.6314 18.3214 55.7857 17.5988 55.0632C16.868 54.3324 15.9731 53.3553 15.5953 52.879C15.2259 52.4028 14.6511 51.6064 14.3227 51.1137C14.0024 50.621 13.5426 49.8821 13.3127 49.4715C13.0828 49.061 12.6887 48.2727 12.4341 47.7062C12.1796 47.1396 11.8019 46.22 11.5966 45.6534C11.3914 45.0869 11.0793 44.0523 10.9069 43.3544C10.7263 42.6564 10.5128 41.5808 10.4225 40.9732C10.3321 40.3656 10.2254 39.3064 10.1761 38.6331C10.1269 37.9516 10.1105 36.9745 10.1351 36.4572C10.1597 35.9399 10.2172 35.1435 10.2665 34.6919C10.3075 34.2402 10.4225 33.4438 10.5128 32.9265C10.6031 32.4092 10.7837 31.5553 10.9151 31.038C11.0465 30.5207 11.3175 29.6093 11.5227 29.0263C11.7198 28.4433 12.0236 27.6469 12.1878 27.261C12.352 26.8751 12.7297 26.1032 13.0171 25.5367C13.3127 24.9701 13.8711 24.0259 14.257 23.4429C14.6429 22.8599 15.2259 22.0388 15.5543 21.6365C15.8745 21.2341 16.4329 20.5855 16.7941 20.1996C17.1472 19.8137 17.7548 19.1978 18.1407 18.8366C18.5266 18.4753 19.1917 17.9005 19.6187 17.5639C20.0457 17.2272 20.6369 16.7838 20.9324 16.5786C21.228 16.3733 21.8356 15.9792 22.2873 15.7082C22.7389 15.4372 23.5517 14.9938 24.0937 14.7229C24.6356 14.4519 25.5224 14.0496 26.0643 13.8361C26.6062 13.6226 27.4519 13.2367 27.9528 12.9904C28.4537 12.7358 29.1926 12.3089 29.595 12.0379C29.9973 11.7752 30.6049 11.3564 30.9334 11.1183C31.2536 10.872 31.5163 10.6585 31.5081 10.6421C31.4917 10.6174 31.1715 10.6585 30.7856 10.7242C30.3996 10.7899 29.6442 10.9541 29.1023 11.0772C28.5604 11.2086 27.6326 11.4796 27.0496 11.6848C26.4666 11.8819 25.6127 12.2021 25.1611 12.3992C24.7095 12.588 23.8966 12.974 23.3547 13.2449C22.8127 13.5159 21.9999 13.9593 21.5483 14.2302C21.0967 14.5012 20.3905 14.9528 19.9882 15.232C19.5859 15.5111 18.8469 16.0777 18.346 16.48C17.8451 16.8824 17.0979 17.5474 16.671 17.9498C15.9402 18.6477 15.8992 18.6723 15.7842 18.5163C15.7185 18.426 15.5543 18.114 15.4065 17.8184C15.1602 17.3257 15.1437 17.2354 15.1437 16.4225C15.1437 15.741 15.1848 15.4454 15.3408 14.9856C15.4476 14.6654 15.6528 14.1728 15.8006 13.8772C15.9484 13.5816 16.2686 13.0643 16.5068 12.7276C16.7449 12.391 17.3443 11.7013 17.8451 11.2086C18.346 10.7077 19.0932 10.0755 19.4955 9.80454C19.8979 9.52537 20.4891 9.1723 20.8093 9.00808C21.1295 8.85207 21.6386 8.6468 21.9588 8.54827C22.279 8.44974 22.8702 8.31836 23.2726 8.25268C23.6749 8.18699 24.6192 8.09667 25.3663 8.05561C26.1135 8.00635 27.4273 7.92424 28.2812 7.88318C29.1352 7.83392 30.2436 7.73539 30.7445 7.6697C31.2454 7.5958 32.05 7.43979 32.5509 7.30842C33.0518 7.17704 33.7333 6.96356 34.0699 6.82397C34.4066 6.68439 34.694 6.57765 34.7022 6.59407C34.7186 6.60228 34.6283 6.94714 34.5133 7.34947C34.3984 7.75181 34.1274 8.53185 33.9057 9.07377C33.6922 9.61569 33.3638 10.3711 33.1914 10.757C33.0107 11.1429 32.7069 11.7177 32.5016 12.0297C32.2964 12.3417 31.8776 12.8754 31.5574 13.2121C31.2454 13.5405 30.7691 13.9921 30.4982 14.2056C30.2272 14.4191 29.6689 14.8132 29.2665 15.0924C28.8642 15.3633 28.0431 15.8478 27.4601 16.168C26.8772 16.4882 25.9329 16.9398 25.3663 17.1779C24.7998 17.4079 23.9541 17.7281 23.4778 17.8841C23.0016 18.0401 22.0081 18.3275 21.2609 18.5245L19.9061 18.8858C22.2298 18.8283 23.1576 18.7462 23.7652 18.6477C24.3071 18.5574 25.12 18.385 25.5716 18.27C26.0232 18.1468 26.7786 17.9251 27.2549 17.7609C27.7311 17.6049 28.741 17.1697 29.5129 16.792C30.2847 16.4225 31.2618 15.8806 31.6888 15.5932C32.1239 15.3059 32.8137 14.7311 33.257 14.2959C33.7086 13.8361 34.2588 13.1792 34.5544 12.7276C34.8418 12.3007 35.3508 11.3728 35.6875 10.6749C36.0323 9.97697 36.4593 8.99987 36.6317 8.499C36.8124 7.99814 37.0998 7.03746 37.2804 6.36416C37.4528 5.68266 37.6745 4.68913 37.7648 4.14721C37.8634 3.58066 37.9619 2.54608 37.9947 1.71678C38.044 0.493352 38.0358 0.247024 37.9291 0.132071ZM1.71889 5.24748C0.930639 5.1161 0.216289 5.00936 0.125969 5.00936C-0.013617 5.00936 -0.0218276 5.06684 0.0274379 5.84687C0.0602816 6.3149 0.158812 7.71075 0.249133 8.9506C0.339453 10.1905 0.462617 11.7423 0.536515 12.3992C0.602202 13.0561 0.717155 13.8361 0.782843 14.1399C0.84853 14.4519 0.988116 14.9692 1.10307 15.2894C1.21802 15.6179 1.46435 16.168 1.64499 16.5047C1.82563 16.8413 2.18691 17.3914 2.44145 17.7281C2.69599 18.0647 3.13117 18.541 3.40213 18.7873C3.67309 19.0336 4.14932 19.4113 4.46955 19.6248C4.78156 19.8383 5.19211 20.0846 5.37275 20.1831C5.55339 20.2735 5.9393 20.4377 6.2349 20.5526C6.53049 20.6594 7.04778 20.8154 7.38442 20.8811C7.72107 20.955 8.25478 21.0289 8.57501 21.0371C8.88702 21.0453 9.42894 21.0453 9.76559 21.0371C10.1597 21.0207 10.3404 20.9878 10.2582 20.9468C10.1926 20.9057 9.87233 20.8154 9.56032 20.7497C9.24009 20.6758 8.70638 20.5198 8.36973 20.4048C8.03309 20.2817 7.5158 20.0518 7.22021 19.8958C6.92461 19.7315 6.42375 19.4113 6.11173 19.1732C5.79151 18.9351 5.30706 18.5081 5.01968 18.2207C4.7323 17.9334 4.28891 17.3832 4.02616 16.9973C3.77162 16.6114 3.43497 15.9956 3.29539 15.6179C3.14759 15.2484 2.97516 14.7147 2.90947 14.4273C2.84378 14.1481 2.75346 13.4173 2.7042 12.8097C2.69915 12.735 2.69323 12.6478 2.6866 12.5503C2.6394 11.8552 2.55653 10.635 2.49893 9.64853C2.42503 8.51542 2.38397 7.58759 2.39218 7.57117C2.40861 7.55475 2.91768 7.62043 3.52529 7.71896C4.1329 7.80929 5.06073 7.98992 5.57802 8.1213C6.09531 8.25267 6.87535 8.49079 7.30232 8.66322C7.72928 8.82744 8.32047 9.09019 8.61606 9.25441C8.91166 9.41041 9.38789 9.72243 9.68348 9.93591C9.97908 10.1576 10.4635 10.5846 10.7591 10.8966C11.0547 11.2004 11.4078 11.6192 11.5474 11.8244C11.6869 12.0297 11.9004 12.3992 12.0236 12.6455C12.1468 12.8918 12.3602 13.3927 12.4916 13.754L12.7215 14.4109C12.664 12.6291 12.6148 12.3171 12.4424 11.8244C12.3192 11.4878 12.0893 10.9705 11.9251 10.6749C11.7691 10.3793 11.4735 9.93591 11.2846 9.68959C11.0958 9.44326 10.677 8.99166 10.3486 8.67964C10.0283 8.37584 9.47821 7.94066 9.12514 7.70254C8.78028 7.47264 8.12341 7.10315 7.67181 6.88966C7.22021 6.66797 6.4648 6.36416 5.98857 6.20816C5.51233 6.06036 4.68303 5.83045 4.14111 5.70729C3.59919 5.58412 2.50714 5.37885 1.71889 5.24748ZM25.4731 25.1672L23.6503 25.1179L23.6421 35.0613H25.3663L25.4074 28.6979L28.9627 35.0203L30.8677 35.0613V25.1261H29.1434L29.1023 31.6784L25.4731 25.1672ZM39.4891 25.1261H32.7562L32.7972 35.086H39.6944L39.7355 33.4192H34.6447V30.7096H39.1607V28.9853H34.6447V26.7683H39.4891V25.1261ZM47.8643 25.1261H40.6387V26.7683H43.2662L43.3072 35.1024H45.1136L45.1547 26.7683H47.8643V25.1261ZM50.1223 39.0518C49.8595 38.9533 49.4079 38.8958 48.8085 38.8794C48.3159 38.863 47.7411 38.8794 47.5358 38.9287C47.3388 38.9697 46.9118 39.1258 46.5916 39.2818C46.1892 39.4788 45.8854 39.7087 45.5652 40.0536C45.3189 40.3245 44.9987 40.7761 44.8591 41.0635C44.7113 41.3591 44.5306 41.8107 44.4567 42.0817C44.3746 42.3855 44.3007 43.0177 44.2761 43.6828C44.2515 44.4957 44.2761 44.9801 44.3664 45.4892C44.4485 45.9326 44.621 46.4335 44.8262 46.844C44.9987 47.2053 45.3189 47.6815 45.5242 47.895C45.7294 48.1085 46.0743 48.3959 46.2878 48.5355C46.5013 48.6668 46.92 48.8557 47.2074 48.946C47.503 49.0363 48.0203 49.1267 48.3569 49.1513C48.7757 49.1841 49.178 49.1595 49.5886 49.0692C49.9334 48.9953 50.4097 48.8393 50.656 48.7243C50.9187 48.5929 51.3457 48.2645 51.6495 47.9607C52.0026 47.6158 52.2818 47.2299 52.4542 46.8851C52.5938 46.5977 52.7744 46.1132 52.8565 45.8177C52.9633 45.4153 52.9961 44.9719 52.9961 44.0112C52.9961 43.0588 52.9633 42.6072 52.8565 42.2048C52.7744 41.9175 52.5856 41.4166 52.4295 41.0964C52.2735 40.7844 51.9779 40.3492 51.7727 40.1357C51.5674 39.9222 51.2061 39.6184 50.968 39.4706C50.7299 39.3146 50.3522 39.1257 50.1223 39.0518ZM25.6127 40.6037V39.0026H18.9618V40.7269L23.1412 40.7679L18.4774 47.0903L18.4692 49.0199L25.8179 48.9789C25.8672 48.3466 25.8508 47.9689 25.8262 47.7308L25.7769 47.2956L20.6943 47.2546L25.6127 40.6037ZM33.7415 39.0026H27.0085V49.0199H33.9057V47.2956H28.8149V44.586H33.3309C33.4048 43.9209 33.4213 43.5432 33.4048 43.3133L33.372 42.9028L28.8149 42.8617V40.7269L33.7004 40.6858L33.7415 39.0026ZM37.9126 39.0108L35.4658 39.0026V49.0199H37.2722V44.7913C38.4135 44.8734 38.6106 44.9227 38.8323 45.0869C38.9801 45.1936 39.3331 45.637 39.6123 46.064C39.8915 46.4992 40.417 47.3367 40.77 47.9361L41.4187 49.0199C43.1102 49.0199 43.5946 49.0035 43.5946 48.9789C43.5946 48.9624 43.2415 48.322 42.8064 47.5666C42.3712 46.8112 41.8621 45.9655 41.6732 45.6945C41.4844 45.4235 41.156 45.0787 40.9425 44.9145C40.729 44.7584 40.5566 44.6189 40.5566 44.6106C40.5566 44.5966 40.7313 44.5403 40.957 44.4677C40.9947 44.4555 41.0339 44.4429 41.0738 44.43C41.4187 44.3233 41.7225 44.1508 41.9935 43.9045C42.2562 43.6828 42.4779 43.3872 42.6093 43.0998C42.7407 42.796 42.8146 42.4512 42.8392 41.9996C42.872 41.548 42.8392 41.2031 42.7489 40.8911C42.6832 40.6448 42.5025 40.2589 42.3465 40.0372C42.1905 39.8073 41.9196 39.5527 41.7061 39.4296C41.509 39.3064 41.1149 39.1668 40.8439 39.1093C40.521 39.0436 39.5439 39.0108 37.9126 39.0108ZM46.9377 41.3218C47.2087 41.018 47.455 40.8374 47.7424 40.7306C47.9723 40.6403 48.3582 40.5746 48.6045 40.5664C48.8508 40.5664 49.2203 40.6157 49.4256 40.6896C49.6309 40.7553 49.9593 40.9523 50.1564 41.1165C50.3534 41.289 50.608 41.6092 50.7229 41.8391C50.8297 42.0608 50.9775 42.4878 51.0349 42.7834C51.1006 43.0789 51.1499 43.5716 51.1499 43.8918C51.1499 44.2121 51.1088 44.7047 51.0596 45.0003C51.0185 45.2959 50.8789 45.7475 50.7558 46.0185C50.6244 46.2976 50.3863 46.6343 50.1892 46.8149C49.9922 46.9956 49.6966 47.2008 49.5323 47.2747C49.3353 47.3568 49.0068 47.4061 48.6456 47.4061C48.2843 47.4061 47.9558 47.3568 47.767 47.2747C47.5946 47.2008 47.299 46.9956 47.1101 46.8149C46.9131 46.6425 46.6585 46.2976 46.5354 46.0595C46.4204 45.8132 46.2726 45.3616 46.2151 45.0414C46.1577 44.6883 46.133 44.1299 46.1659 43.6044C46.1905 43.0625 46.2726 42.5617 46.3794 42.2496C46.4861 41.9212 46.6749 41.6092 46.9377 41.3218ZM37.2734 43.1939V41.9623V40.7306H38.7268C40.0405 40.7306 40.2129 40.747 40.4593 40.8948C40.5989 40.9852 40.7795 41.1904 40.8452 41.3464C40.9109 41.5025 40.9684 41.7816 40.9684 41.9623C40.9684 42.1429 40.9027 42.4303 40.8288 42.5945C40.722 42.7998 40.5824 42.9394 40.3525 43.0461C40.0816 43.1693 39.7942 43.1939 37.2734 43.1939Z" fill="#3CAA35"/>
</svg>
