<svg width="78" height="72" viewBox="0 0 78 72" fill="none" xmlns="http://www.w3.org/2000/svg">
<path fill-rule="evenodd" clip-rule="evenodd" d="M48.2005 0.109798C47.8636 0.0388888 46.9241 -0.0142914 46.0909 0.00343588C45.2577 0.0211632 43.9814 0.127526 43.2545 0.251617C42.5277 0.35798 41.3755 0.641616 40.6841 0.854343C39.9927 1.06707 38.7164 1.59889 37.8477 2.02434C36.9791 2.46753 35.7027 3.24753 35.0114 3.74389C34.3377 4.25798 33.3805 5.09116 32.8841 5.5698C32.3877 6.06616 31.5723 7.02343 31.0759 7.69707C30.5618 8.37071 29.835 9.57616 29.445 10.3562C28.86 11.5616 28.6118 11.863 27.8141 12.3948C27.3 12.7316 26.4845 13.4584 26.0059 13.9903C25.5273 14.5221 24.9423 15.3198 24.7295 15.763C24.4991 16.2062 24.18 17.0393 24.0205 17.6243C23.8255 18.2803 23.7191 19.273 23.7191 20.1948C23.7191 21.2407 23.8432 22.0562 24.1091 22.8539C24.3218 23.4921 24.6409 24.2543 24.8359 24.538L25.1727 25.0698C24.4636 25.7612 24.0914 26.2575 23.9141 26.6298C23.7191 27.0021 23.5773 27.6402 23.5773 28.1366C23.5773 28.5975 23.7368 29.2889 23.9141 29.6789C24.0914 30.0689 24.4282 30.5653 24.6586 30.778C24.8891 30.9907 25.3855 31.2921 25.7577 31.4339C26.1123 31.5934 26.6618 31.7175 26.9455 31.7175C27.3886 31.7175 27.5305 31.8416 27.7964 32.3557C27.916 32.6215 28.0455 32.8671 28.1253 33.0183C28.152 33.0688 28.173 33.1088 28.1864 33.1355C28.2041 33.3125 28.4345 33.7916 28.9132 34.5539C29.3209 35.1921 30.0655 36.1316 30.5618 36.6634C31.0582 37.1775 31.9091 37.9575 32.4409 38.3652C32.9727 38.773 33.8768 39.358 34.4441 39.6771L35.4545 40.2266V42.1766C34.1427 42.3362 33.1323 42.4957 32.3523 42.6375C31.5723 42.7793 30.2073 43.1516 29.3386 43.453C28.47 43.7366 26.9809 44.3748 26.0591 44.8712C25.1373 45.3498 23.6305 46.3248 22.7086 47.0162C21.7868 47.7253 20.9359 48.4521 20.7941 48.6471C20.67 48.8421 20.5636 49.1434 20.5636 49.3207C20.5636 49.4802 20.6877 49.7462 20.8295 49.888C20.9714 50.0298 21.2905 50.1539 21.5386 50.1539C21.8223 50.1539 22.3895 49.7993 23.0986 49.1966C23.7014 48.6648 24.8359 47.8493 25.6159 47.3707C26.3959 46.8921 27.7077 46.2184 28.5409 45.8462C29.3741 45.4916 30.8455 45.013 31.8205 44.7648C32.7955 44.5166 33.9477 44.3039 34.3909 44.3039C34.8341 44.2862 35.295 44.2862 35.4191 44.2862C35.5255 44.3039 35.6318 44.4457 35.6318 44.623C35.6318 44.7825 35.88 45.403 36.1459 45.988C36.4473 46.5907 37.0145 47.3884 37.4755 47.8139C37.9186 48.2216 38.5923 48.718 38.9645 48.8952C39.3191 49.0725 40.0991 49.3384 40.6841 49.4625C41.535 49.6398 41.9959 49.6398 42.9 49.4803C43.5382 49.3562 44.4068 49.0903 44.85 48.8598C45.2755 48.6471 45.9845 48.133 46.3923 47.7253C46.8177 47.2998 47.3495 46.573 47.5977 46.0766C47.8459 45.598 48.0409 45.0839 48.0409 44.9775C48.0409 44.8534 48.1295 44.623 48.2182 44.4812C48.3423 44.2862 48.6259 44.233 49.2286 44.2684C49.6895 44.3039 50.5936 44.428 51.2318 44.5698C51.87 44.7116 53.0223 45.0307 53.8023 45.2789C54.5823 45.5271 55.9473 46.1298 56.8159 46.5907C57.6845 47.0516 58.89 47.7784 59.475 48.2039C60.06 48.6471 61.0882 49.5157 61.7618 50.1539C62.4355 50.7921 63.4459 51.9443 64.0486 52.7243C64.6336 53.5043 65.4491 54.8339 65.8745 55.7025C66.3 56.5534 66.8141 57.6703 67.0091 58.1666C67.1864 58.6807 67.5232 59.7798 67.7359 60.613C68.0373 61.8539 68.1259 62.7757 68.1791 65.7893L68.25 69.4766H57.4364C57.4364 64.5484 57.3832 63.6266 57.2236 63.4139C57.0995 63.2543 56.8691 63.1125 56.7273 63.0948C56.5855 63.0593 56.3727 63.0593 56.2486 63.0771C56.1423 63.0771 55.9118 63.2189 55.77 63.3607C55.5395 63.5734 55.4864 64.123 55.4864 66.5516V69.4766C49.1438 69.4766 47.3869 69.4764 46.8312 69.4764L46.6227 69.4764H43.6977L43.3937 69.4764H43.2927C42.597 69.4765 40.8653 69.4766 35.8977 69.4766H28.3636C28.3636 64.4952 28.3105 63.8039 28.0977 63.5025C27.9382 63.2543 27.6545 63.0948 27.3355 63.0948C27.0695 63.0771 26.7682 63.1834 26.6441 63.3075C26.5023 63.4671 26.4136 64.4952 26.3782 66.463L26.325 69.388L15.3341 69.4766C15.5291 64.6016 15.6709 62.6693 15.7773 62.0312C15.8836 61.393 16.2027 60.0989 16.4864 59.1593C16.7877 58.2021 17.0182 57.3157 17.0182 57.2093C17.0359 57.0852 16.8941 56.8371 16.7168 56.6598C16.5395 56.4825 16.2027 56.3584 15.9545 56.3939C15.6355 56.4293 15.405 56.6598 15.1214 57.2448C14.8909 57.688 14.5186 58.8403 14.2882 59.8153C14.04 60.7902 13.7564 62.368 13.6677 63.3252C13.5614 64.2648 13.4727 66.0907 13.4727 67.3493V69.6539C1.11682 69.6362 0.602728 69.6716 0.319091 69.9553C0.141819 70.1325 0 70.4162 0 70.5934C0 70.753 0.159545 71.0543 0.354545 71.2493C0.709091 71.6039 0.939546 71.6039 39 71.6039C64.1727 71.6039 77.415 71.5507 77.6455 71.4266C77.8936 71.3025 78 71.0721 78 70.6289C78 70.1857 77.8936 69.9553 77.6455 69.8312C77.4505 69.7248 75.7486 69.6539 73.7455 69.6539H70.2C70.2 64.7257 70.0936 62.8821 69.9341 61.8539C69.7745 60.9321 69.42 59.4075 69.1364 58.4857C68.8527 57.5639 68.3032 56.1634 67.9309 55.3834C67.5586 54.6034 66.9559 53.5043 66.6014 52.9548C66.2468 52.3875 65.8391 51.7848 65.6973 51.6252C65.6453 51.5603 65.5483 51.4408 65.4252 51.2891L65.4251 51.2891L65.4212 51.2843C65.2085 51.0223 64.9194 50.6662 64.6514 50.3312C64.2259 49.7993 63.2509 48.8066 62.4709 48.133C61.7086 47.4416 60.3968 46.4489 59.5636 45.9171C58.7305 45.3853 57.2768 44.5875 56.3195 44.1798C55.38 43.7543 53.82 43.2225 52.8805 42.9743C51.9232 42.7262 50.5405 42.4603 49.8136 42.3539C49.0868 42.2653 48.4664 42.1589 48.4486 42.1412C48.4486 42.1296 48.4448 42.0895 48.4391 42.0289L48.4391 42.0287L48.4391 42.0285C48.4273 41.9041 48.4074 41.6938 48.3955 41.4675C48.36 41.1307 48.36 40.6521 48.3777 40.4039C48.3955 40.0671 48.6259 39.8366 49.4236 39.4112C49.9732 39.1098 50.9305 38.4362 51.5509 37.9398C52.1536 37.4434 53.1109 36.4507 53.6605 35.7416C54.2277 35.0325 55.0077 33.8448 55.3977 33.0825C55.965 31.9834 56.1777 31.7175 56.4968 31.7175C56.7273 31.7175 57.2236 31.5934 57.6136 31.4516C58.0036 31.3098 58.3227 31.1325 58.3405 31.0616C58.9914 30.4674 59.2951 30.0691 59.6523 29.1468C59.661 29.0888 59.6706 29.0336 59.6803 28.9784C59.7297 28.6959 59.7796 28.4109 59.7055 27.7289C59.67 27.2325 59.4395 26.5589 59.1914 26.1689C58.9255 25.7612 58.4468 25.3534 57.9327 25.1053L57.0995 24.7153C57.0818 18.2803 57.0286 17.1812 56.8691 16.9507C56.745 16.7557 56.4436 16.6139 56.1955 16.5962C55.9473 16.5784 55.6105 16.6671 55.4332 16.7912C55.1673 16.9862 55.1318 17.518 55.0786 22.7298C55.0255 27.9771 54.99 28.5443 54.6355 29.7321C54.4227 30.4234 53.9973 31.5048 53.6959 32.1252C53.3768 32.728 52.8273 33.6321 52.4727 34.1107C52.1182 34.6071 51.3027 35.458 50.6823 36.043C50.0618 36.6102 49.0336 37.3903 48.3955 37.7448C47.7573 38.1171 46.605 38.6312 45.825 38.8971C44.7614 39.2516 43.9105 39.3934 42.4568 39.4643C41.0564 39.5353 40.1345 39.4821 39.1773 39.2871C38.4505 39.1453 37.4045 38.8439 36.8727 38.6489C36.3409 38.4539 35.295 37.9043 34.5682 37.4257C33.8414 36.9471 32.7423 36.043 32.1218 35.4225C31.5014 34.8021 30.8809 34.0752 30.7391 33.8093C30.617 33.5652 30.4534 33.4245 30.3277 33.3165C30.2892 33.2833 30.2541 33.2532 30.225 33.2241C30.1879 33.187 30.1521 33.1571 30.1177 33.1285C30.0207 33.0478 29.9359 32.9773 29.8705 32.7809C29.8599 32.6541 29.8304 32.5904 29.7971 32.5182C29.7745 32.4694 29.7501 32.4167 29.7286 32.338C29.6577 32.143 29.3741 31.3098 29.0905 30.4766C28.7891 29.6434 28.5055 28.5266 28.4523 27.9948L28.3459 27.0198C29.6755 25.6548 30.225 24.9634 30.4377 24.6266C30.6505 24.2898 30.9518 23.563 31.1114 23.0312C31.3241 22.2866 31.3773 21.4712 31.3418 19.6807L31.2886 17.323C32.2459 16.5252 32.7777 16.2416 33.0614 16.1884C33.4336 16.1175 34.0541 16.2593 35.1886 16.7025C36.0573 17.0393 37.4577 17.518 38.2909 17.7484C39.6382 18.103 40.17 18.1562 43.2545 18.1562C46.3036 18.1384 46.8886 18.103 48.2182 17.7307C49.0514 17.518 50.3277 17.0748 51.0545 16.7734C51.7814 16.4721 52.7386 16.0289 53.1818 15.7984C53.625 15.5503 54.6 14.9121 55.38 14.3625C56.1423 13.813 57.4186 12.6962 58.2164 11.863C59.0141 11.0298 60.06 9.77116 60.5564 9.06207C61.3541 7.87434 61.4073 7.75025 61.2123 7.28934C61.0882 7.02343 60.3614 6.20798 59.6168 5.46343C58.8545 4.71889 57.5605 3.67298 56.7273 3.12343C55.8941 2.59162 54.6355 1.90025 53.9441 1.59889C53.235 1.29753 52.455 1.04934 52.2068 1.04934C51.9409 1.04934 51.6573 1.20889 51.5155 1.45707C51.3736 1.6698 51.3027 1.97116 51.3382 2.11298C51.3736 2.2548 51.5509 2.50298 51.7282 2.66253C51.8877 2.80434 52.3841 3.07025 52.8273 3.24752C53.2705 3.40707 54.2632 3.92116 55.0432 4.38207C55.8055 4.84298 57.0464 5.78253 57.7732 6.45616L59.085 7.69707C58.2518 8.93798 57.5959 9.75343 57.0641 10.3384C56.5323 10.9057 55.5573 11.7921 54.8659 12.3062C54.1745 12.8025 53.0755 13.5471 52.3841 13.9548C51.6927 14.3625 50.6114 14.8943 49.9555 15.1425C49.2818 15.3907 48.0232 15.7453 47.1545 15.9403C45.9845 16.2062 44.9386 16.2948 43.2191 16.2948C41.6591 16.2771 40.3473 16.1707 39.3545 15.958C38.5214 15.7807 37.0855 15.3375 36.1636 14.9653C35.2418 14.6107 34.2314 14.2562 33.9477 14.203C33.6641 14.1498 33.0259 14.2207 32.5295 14.3448C32.0509 14.4689 31.395 14.7525 31.1114 14.9475C30.8277 15.1425 30.4377 15.4793 30.2605 15.6743C30.1009 15.8693 29.8173 16.2771 29.64 16.5607C29.3918 17.0039 29.3386 17.5534 29.3386 19.7516C29.3386 22.1448 29.3032 22.4993 28.9486 23.2084C28.7182 23.6516 28.3459 24.2189 28.0977 24.5025C27.7077 24.928 27.6191 24.9457 27.3532 24.733C27.1759 24.5912 26.7859 23.9884 26.4668 23.368C26.1477 22.7475 25.8286 21.7903 25.7577 21.2584C25.6691 20.7266 25.6514 19.7693 25.7223 19.1312C25.7932 18.4221 26.0236 17.6066 26.325 17.0039C26.5909 16.4721 27.0518 15.7453 27.3177 15.3907C27.6014 15.0362 28.3636 14.398 29.0018 13.9725C30.0477 13.2812 30.2427 13.0507 30.8809 11.7743C31.2709 10.9943 31.9091 9.91298 32.2636 9.38116C32.6359 8.84934 33.2741 8.01616 33.6995 7.53753C34.125 7.04116 35.0645 6.19025 35.7914 5.62298C36.5005 5.05571 37.9009 4.18707 38.8936 3.70843C39.8686 3.2298 41.3577 2.66252 42.1909 2.4498C43.29 2.16616 44.3359 2.04207 46.0909 2.00662C47.4027 1.97116 48.555 1.95344 48.6614 1.95344C48.7677 1.95344 48.945 1.72298 49.0691 1.45707C49.2464 1.04934 49.2464 0.889798 49.0514 0.606162C48.9095 0.411162 48.5373 0.198434 48.2005 0.109798ZM38.7695 22.6412C38.6455 22.5702 37.8477 22.4993 36.9791 22.4993C35.9155 22.4993 35.4014 22.5702 35.3305 22.7298C35.2595 22.8362 35.2773 23.0843 35.3305 23.2616C35.4191 23.5275 35.6495 23.563 37.1564 23.5275C38.7341 23.4743 38.8936 23.4389 38.9468 23.1198C38.9823 22.9248 38.9114 22.7121 38.7695 22.6412ZM47.7573 22.588C47.6155 22.5348 46.8177 22.4993 46.0023 22.4993C44.8855 22.4993 44.46 22.5703 44.3182 22.7653C44.1764 22.9603 44.1764 23.1021 44.3536 23.2971C44.5132 23.5098 44.9209 23.5807 46.0377 23.563C46.8355 23.563 47.6155 23.5275 47.7573 23.4743C47.8991 23.4212 48.0232 23.2262 48.0232 23.0312C48.0232 22.8362 47.8991 22.6412 47.7573 22.588ZM38.3973 25.2825C38.1845 25.1053 37.83 24.9634 37.6173 24.9812C37.4045 24.9812 37.1032 25.1053 36.9614 25.2471C36.8018 25.3889 36.6423 25.6725 36.5891 25.8675C36.5359 26.0625 36.6245 26.4171 36.7664 26.6653C36.9082 26.9134 37.245 27.1616 37.5286 27.2148C37.83 27.268 38.1491 27.2148 38.415 27.0375C38.6277 26.878 38.8227 26.6121 38.8227 26.4525C38.8405 26.2752 38.8405 26.0093 38.8227 25.8675C38.805 25.7257 38.61 25.4598 38.3973 25.2825ZM46.4277 25.3357C46.2327 25.1407 45.8427 24.9812 45.5414 24.9812C45.2223 24.9812 44.9209 25.123 44.7436 25.3712C44.5664 25.5839 44.4423 25.9562 44.46 26.1689C44.4777 26.3993 44.655 26.7362 44.8855 26.9312C45.0982 27.1262 45.435 27.2857 45.63 27.2857C45.825 27.2857 46.1618 27.1084 46.3745 26.8957C46.605 26.6652 46.7823 26.3107 46.7823 26.098C46.7823 25.8675 46.6227 25.5307 46.4277 25.3357ZM39.2482 30.388C39.1418 29.9803 38.9291 29.6612 38.7695 29.6257C38.61 29.5903 38.4327 29.6789 38.3618 29.803C38.2909 29.9271 38.2732 30.3525 38.3441 30.7425C38.3973 31.1325 38.6986 31.753 38.9823 32.1252C39.2836 32.4798 39.8155 32.9053 40.1877 33.0648C40.5423 33.2243 41.1982 33.3484 41.6414 33.3662C42.1377 33.3662 42.7227 33.2243 43.2014 32.9939C43.6091 32.7812 44.1054 32.3912 44.2827 32.1252C44.4777 31.8416 44.7259 31.2566 44.8677 30.7957C45.045 30.1398 45.045 29.9093 44.8855 29.7321C44.7614 29.608 44.5664 29.5548 44.4423 29.608C44.3182 29.6612 44.1232 30.0689 43.9991 30.4943C43.875 30.9375 43.5559 31.5048 43.2368 31.8062C42.8114 32.2139 42.4745 32.3557 41.8541 32.4089C41.3223 32.4443 40.8082 32.3734 40.4536 32.1784C40.1345 32.0189 39.7623 31.7175 39.6559 31.5048C39.5318 31.2743 39.3368 30.778 39.2482 30.388ZM19.89 51.1821C19.7127 51.0048 19.3936 50.863 19.1809 50.863C18.9682 50.863 18.5782 51.1112 18.2945 51.448C18.0286 51.7671 17.5145 52.4407 17.1777 52.9725C16.5927 53.8766 16.575 53.9475 16.8232 54.3907C17.0182 54.7098 17.2664 54.8693 17.6741 54.9048C18.1882 54.9403 18.3123 54.8339 18.915 53.9298C19.1221 53.6088 19.3594 53.2515 19.5528 52.9604L19.5529 52.9602L19.5531 52.96C19.6906 52.7529 19.806 52.5793 19.8723 52.4762C20.0495 52.228 20.1914 51.8912 20.1914 51.7493C20.1914 51.6075 20.0673 51.3416 19.89 51.1821ZM25.4939 28.1352C25.4761 27.7984 25.6002 27.4616 25.7952 27.2488C25.9725 27.0716 26.1675 26.9652 26.2207 27.0361C26.2739 27.0893 26.398 27.6566 26.5043 28.277C26.6225 29.0452 26.6225 29.4648 26.5043 29.5357C26.398 29.6066 26.1498 29.4293 25.937 29.1811C25.7066 28.9152 25.5116 28.4543 25.4939 28.1352ZM56.8937 28.3552C56.9262 28.1126 56.9607 27.8547 56.9952 27.6388C57.1016 26.8411 57.1016 26.8411 57.4561 27.1957C57.6689 27.4261 57.793 27.7807 57.793 28.1707C57.793 28.5607 57.6334 28.9329 57.3852 29.1988C57.1725 29.4116 56.9421 29.5888 56.8534 29.5888C56.7825 29.5888 56.7648 29.3229 56.8002 29.0038C56.8275 28.8493 56.8595 28.6107 56.8937 28.3552ZM37.8852 45.1002C37.6016 44.5684 37.4952 43.9657 37.4421 42.6538C37.3948 41.5075 37.4302 40.9343 37.5484 40.9343C37.6548 40.9343 38.2043 41.0584 38.7716 41.2002C39.3743 41.342 40.5798 41.4661 41.6611 41.4484C42.6893 41.4484 44.0366 41.342 44.6748 41.2002C45.313 41.0584 45.9689 40.952 46.1284 40.9343C46.4121 40.9343 46.4475 41.1116 46.4475 42.2107C46.4475 42.9198 46.3234 43.9302 46.1816 44.4266C45.9866 45.1179 45.6852 45.5966 45.0293 46.2525C44.338 46.9438 43.9125 47.2098 43.1148 47.4225C42.4411 47.6175 41.8384 47.6707 41.3066 47.582C40.8634 47.5111 40.2252 47.3161 39.8884 47.1388C39.5516 46.9616 39.0375 46.5893 38.7539 46.3234C38.488 46.0397 38.0802 45.4902 37.8852 45.1002Z" fill="white"/>
</svg>
