<svg width="73" height="73" viewBox="0 0 73 73" fill="none" xmlns="http://www.w3.org/2000/svg">
<rect width="73" height="73" rx="36.5" fill="#F5F5F5"/>
<path d="M46.2502 36.1201C46.2502 35.4454 46.2502 35.1081 46.3516 34.8078C46.646 33.9342 47.4241 33.5969 48.2041 33.242C49.0776 32.8422 49.5144 32.6433 49.9493 32.6082C50.4407 32.5692 50.934 32.6745 51.3552 32.9105C51.9129 33.2225 52.3029 33.8192 52.7007 34.3028C54.5395 36.5374 55.4599 37.6547 55.7953 38.8852C56.0682 39.8796 56.0682 40.9209 55.7953 41.9135C55.3058 43.7113 53.7556 45.2167 52.6071 46.6129C52.0201 47.3246 51.7257 47.6814 51.3552 47.8901C50.9268 48.1277 50.4375 48.2329 49.9493 48.1923C49.5144 48.1572 49.0776 47.9583 48.2021 47.5586C47.4221 47.2037 46.646 46.8664 46.3516 45.9928C46.2502 45.6925 46.2502 45.3551 46.2502 44.6824V36.1201ZM26.7506 36.1201C26.7506 35.2699 26.7272 34.5075 26.0408 33.9108C25.7912 33.6944 25.4597 33.5442 24.7987 33.242C23.9231 32.8442 23.4863 32.6433 23.0515 32.6082C21.7509 32.5029 21.0508 33.3921 20.3021 34.3047C18.4613 36.5374 17.5409 37.6547 17.2036 38.8871C16.9321 39.8783 16.9321 40.9242 17.2036 41.9154C17.695 43.7113 19.2471 45.2186 20.3937 46.6129C21.1171 47.4903 21.8094 48.2918 23.0515 48.1923C23.4863 48.1572 23.9231 47.9583 24.7987 47.5586C25.4617 47.2583 25.7912 47.1062 26.0408 46.8898C26.7272 46.2931 26.7506 45.5306 26.7506 44.6824V36.1201Z" stroke="#312C85" stroke-width="2.92494" stroke-linecap="round" stroke-linejoin="round"/>
<path d="M52.0998 33.5747V30.6497C52.0998 23.1112 45.115 17 36.5001 17C27.8852 17 20.9004 23.1112 20.9004 30.6497V33.5747M52.0998 47.2244C52.0998 55.9992 44.2999 55.9992 36.5001 55.9992" stroke="#312C85" stroke-width="2.92494" stroke-linecap="round" stroke-linejoin="round"/>
</svg>
