<svg width="73" height="73" viewBox="0 0 73 73" fill="none" xmlns="http://www.w3.org/2000/svg">
<rect width="73" height="73" rx="36.5" fill="#F5F5F5"/>
<path d="M50.1437 24.7431C49.0586 22.1529 47.2321 19.9411 44.8936 18.3855C42.555 16.8299 39.8088 16 37 16C34.1912 16 31.445 16.8299 29.1064 18.3855C26.7679 19.9411 24.9414 22.1529 23.8563 24.7431C21.5129 25.8139 19.5266 27.5354 18.1339 29.7025C16.7411 31.8697 16.0004 34.3913 16 36.9672C15.9813 44.1281 22 50.3142 29.1513 50.5017C31.3509 50.5547 33.5302 50.0702 35.5 49.0901V56.5003C35.5 56.8981 35.658 57.2795 35.9393 57.5608C36.2206 57.842 36.6022 58 37 58C37.3978 58 37.7794 57.842 38.0607 57.5608C38.342 57.2795 38.5 56.8981 38.5 56.5003V49.0901C40.3648 50.0157 42.418 50.4987 44.5 50.5017H44.8412C52 50.3142 58.0206 44.1281 57.9999 36.9672C57.9996 34.3913 57.2589 31.8697 55.8661 29.7025C54.4733 27.5354 52.4871 25.8139 50.1437 24.7431ZM44.7719 47.5024C42.535 47.5606 40.3379 46.9039 38.5 45.6278V37.942L46.6712 33.8592C46.8475 33.771 47.0047 33.6491 47.1339 33.5002C47.263 33.3513 47.3616 33.1785 47.4239 32.9915C47.4862 32.8046 47.5111 32.6072 47.4972 32.4106C47.4832 32.214 47.4306 32.0221 47.3425 31.8459C47.2543 31.6696 47.1323 31.5124 46.9834 31.3833C46.8345 31.2542 46.6616 31.1557 46.4746 31.0934C46.2876 31.031 46.0902 31.0062 45.8936 31.0201C45.697 31.0341 45.505 31.0866 45.3287 31.1748L38.5 34.579V29.5064C38.5 29.1087 38.342 28.7272 38.0607 28.446C37.7794 28.1647 37.3978 28.0067 37 28.0067C36.6022 28.0067 36.2206 28.1647 35.9393 28.446C35.658 28.7272 35.5 29.1087 35.5 29.5064V39.078L28.6713 35.6625C28.3152 35.4845 27.903 35.4552 27.5254 35.5811C27.1477 35.707 26.8355 35.9776 26.6575 36.3336C26.4795 36.6896 26.4502 37.1017 26.5761 37.4793C26.702 37.8568 26.9727 38.1689 27.3288 38.3469L35.5 42.4298V45.6165C33.6626 46.8936 31.4651 47.5504 29.2281 47.4911C23.6688 47.358 18.985 42.5385 19 36.9747C18.9986 34.8823 19.6253 32.8376 20.7989 31.1051C21.9725 29.3726 23.6391 28.0321 25.5831 27.2569C25.7782 27.1786 25.9545 27.0602 26.1009 26.9094C26.2472 26.7586 26.3602 26.5787 26.4325 26.3815C27.2237 24.2152 28.6619 22.3444 30.5521 21.0227C32.4423 19.7009 34.6933 18.992 37 18.992C39.3067 18.992 41.5576 19.7009 43.4479 21.0227C45.3381 22.3444 46.7763 24.2152 47.5675 26.3815C47.6398 26.5787 47.7528 26.7586 47.8991 26.9094C48.0454 27.0602 48.2218 27.1786 48.4168 27.2569C50.3605 28.0325 52.0269 29.3731 53.2005 31.1055C54.374 32.8379 55.0009 34.8824 55 36.9747C55.015 42.5385 50.3312 47.358 44.7719 47.5024Z" fill="#312C85"/>
</svg>
