<svg width="73" height="73" viewBox="0 0 73 73" fill="none" xmlns="http://www.w3.org/2000/svg">
<rect width="73" height="73" rx="36.5" fill="#F5F5F5"/>
<path d="M34.643 38.4291H26.5001C25.4203 38.4291 24.3847 38.8581 23.6212 39.6216C22.8577 40.3852 22.4287 41.4207 22.4287 42.5006V45.2148H25.143V42.5006C25.143 42.1406 25.286 41.7954 25.5405 41.5409C25.795 41.2864 26.1402 41.1434 26.5001 41.1434H34.643C35.0029 41.1434 35.3481 41.2864 35.6026 41.5409C35.8572 41.7954 36.0001 42.1406 36.0001 42.5006V45.2148H38.7144V42.5006C38.7144 41.4207 38.2855 40.3852 37.5219 39.6216C36.7584 38.8581 35.7228 38.4291 34.643 38.4291ZM30.5716 37.072C31.6452 37.072 32.6948 36.7536 33.5875 36.1571C34.4802 35.5606 35.176 34.7128 35.5869 33.7208C35.9978 32.7289 36.1053 31.6374 35.8958 30.5844C35.6864 29.5313 35.1693 28.564 34.4101 27.8048C33.6509 27.0456 32.6837 26.5286 31.6306 26.3192C30.5776 26.1097 29.4861 26.2172 28.4941 26.6281C27.5022 27.0389 26.6544 27.7347 26.0579 28.6275C25.4614 29.5202 25.143 30.5697 25.143 31.6434C25.143 33.0832 25.7149 34.4639 26.733 35.482C27.751 36.5001 29.1318 37.072 30.5716 37.072ZM30.5716 28.9291C31.1084 28.9291 31.6332 29.0883 32.0795 29.3866C32.5259 29.6848 32.8738 30.1087 33.0792 30.6047C33.2847 31.1007 33.3384 31.6464 33.2337 32.1729C33.129 32.6995 32.8705 33.1831 32.4909 33.5627C32.1113 33.9423 31.6276 34.2008 31.1011 34.3055C30.5746 34.4103 30.0288 34.3565 29.5329 34.1511C29.0369 33.9457 28.613 33.5978 28.3147 33.1514C28.0165 32.705 27.8573 32.1803 27.8573 31.6434C27.8573 30.9235 28.1433 30.2332 28.6523 29.7241C29.1613 29.2151 29.8517 28.9291 30.5716 28.9291Z" fill="#312C85"/>
<path d="M52.2857 37.0725V49.2868H19.7143V22.144H36V19.4297H19.7143C18.9944 19.4297 18.304 19.7157 17.795 20.2247C17.286 20.7337 17 21.4241 17 22.144V49.2868C17 50.0067 17.286 50.6971 17.795 51.2061C18.304 51.7151 18.9944 52.0011 19.7143 52.0011H52.2857C53.0056 52.0011 53.696 51.7151 54.205 51.2061C54.714 50.6971 55 50.0067 55 49.2868V37.0725H52.2857Z" fill="#312C85"/>
<path d="M41.4282 37.0714H49.571V39.7857H41.4282V37.0714ZM44.1424 42.5H49.571V45.2143H44.1424V42.5ZM57.7139 24.8571V22.1429H54.8625C54.6864 21.2936 54.3492 20.486 53.8691 19.7638L55.8912 17.7416L53.9722 15.8226L51.9501 17.8448C51.2278 17.3647 50.4202 17.0274 49.571 16.8514V14H46.8567V16.8514C46.0075 17.0274 45.1999 17.3647 44.4777 17.8448L42.4555 15.8226L40.5365 17.7416L42.5587 19.7638C42.0785 20.486 41.7413 21.2936 41.5652 22.1429H38.7139V24.8571H41.5652C41.7413 25.7064 42.0785 26.514 42.5587 27.2362L40.5365 29.2584L42.4555 31.1774L44.4777 29.1552C45.1999 29.6353 46.0075 29.9726 46.8567 30.1486V33H49.571V30.1486C50.4202 29.9726 51.2278 29.6353 51.9501 29.1552L53.9722 31.1774L55.8912 29.2584L53.8691 27.2362C54.3492 26.514 54.6864 25.7064 54.8625 24.8571H57.7139ZM48.2139 27.5714C47.4086 27.5714 46.6214 27.3326 45.9519 26.8853C45.2824 26.4379 44.7605 25.802 44.4524 25.0581C44.1442 24.3141 44.0636 23.4955 44.2207 22.7057C44.3778 21.9159 44.7655 21.1905 45.3349 20.6211C45.9043 20.0517 46.6298 19.6639 47.4196 19.5068C48.2093 19.3497 49.028 19.4303 49.7719 19.7385C50.5159 20.0466 51.1518 20.5685 51.5991 21.238C52.0465 21.9076 52.2853 22.6947 52.2853 23.5C52.2842 24.5795 51.8549 25.6144 51.0916 26.3777C50.3283 27.1411 49.2933 27.5704 48.2139 27.5714Z" fill="#312C85"/>
</svg>
