<svg width="73" height="73" viewBox="0 0 73 73" fill="none" xmlns="http://www.w3.org/2000/svg">
<rect width="73" height="73" rx="36.5" fill="#F5F5F5"/>
<path d="M24.1432 40.5C22.7363 38.196 21.9945 35.5476 22 32.8481C22 24.6469 28.7163 18 37 18C45.2837 18 52 24.6469 52 32.8481C52.0055 35.5476 51.2637 38.196 49.8568 40.5M42.625 49.8749L42.3812 51.0881C42.1187 52.4137 41.9856 53.0756 41.6875 53.6006C41.2281 54.4097 40.4843 55.0192 39.6006 55.3105C39.0287 55.4999 38.35 55.4999 37 55.4999C35.65 55.4999 34.9713 55.4999 34.3994 55.3124C33.5154 55.0206 32.7715 54.4104 32.3125 53.6006C32.0144 53.0756 31.8813 52.4137 31.6188 51.0881L31.375 49.8749M28.3431 46.3087C28.1706 45.7912 28.0844 45.5306 28.0938 45.3206C28.1044 45.1034 28.1777 44.894 28.3048 44.7177C28.4319 44.5413 28.6074 44.4055 28.81 44.3268C29.005 44.2499 29.2788 44.2499 29.8225 44.2499H44.1775C44.7231 44.2499 44.995 44.2499 45.19 44.3249C45.3929 44.4038 45.5686 44.5398 45.6957 44.7166C45.8229 44.8933 45.896 45.1031 45.9062 45.3206C45.9156 45.5306 45.8294 45.7893 45.6569 46.3087C45.3381 47.2668 45.1787 47.7468 44.9331 48.1349C44.4194 48.9461 43.614 49.5293 42.6831 49.7643C42.2369 49.8749 41.7344 49.8749 40.7275 49.8749H33.2725C32.2656 49.8749 31.7613 49.8749 31.3169 49.7624C30.3863 49.5278 29.581 48.9454 29.0669 48.1349C28.8213 47.7468 28.6619 47.2668 28.3431 46.3087Z" stroke="#312C85" stroke-width="3" stroke-linecap="round" stroke-linejoin="round"/>
<path d="M29.9687 32.5312L34.1875 36.75V44.25M44.0312 32.5312L39.8125 36.75V44.25M29.9687 33.9375C30.3417 33.9375 30.6994 33.7893 30.9631 33.5256C31.2268 33.2619 31.375 32.9042 31.375 32.5312C31.375 32.1583 31.2268 31.8006 30.9631 31.5369C30.6994 31.2732 30.3417 31.125 29.9687 31.125C29.5958 31.125 29.2381 31.2732 28.9744 31.5369C28.7107 31.8006 28.5625 32.1583 28.5625 32.5312C28.5625 32.9042 28.7107 33.2619 28.9744 33.5256C29.2381 33.7893 29.5958 33.9375 29.9687 33.9375ZM44.0312 33.9375C43.6583 33.9375 43.3006 33.7893 43.0369 33.5256C42.7731 33.2619 42.625 32.9042 42.625 32.5312C42.625 32.1583 42.7731 31.8006 43.0369 31.5369C43.3006 31.2732 43.6583 31.125 44.0312 31.125C44.4042 31.125 44.7619 31.2732 45.0256 31.5369C45.2893 31.8006 45.4375 32.1583 45.4375 32.5312C45.4375 32.9042 45.2893 33.2619 45.0256 33.5256C44.7619 33.7893 44.4042 33.9375 44.0312 33.9375Z" stroke="#312C85" stroke-width="3" stroke-linecap="round" stroke-linejoin="round"/>
</svg>
