<svg width="30" height="30" viewBox="0 0 30 30" fill="none" xmlns="http://www.w3.org/2000/svg">
<path fill-rule="evenodd" clip-rule="evenodd" d="M0 3C0 2.20435 0.31607 1.44129 0.87868 0.87868C1.44129 0.31607 2.20435 0 3 0L27 0C27.7956 0 28.5587 0.31607 29.1213 0.87868C29.6839 1.44129 30 2.20435 30 3V27C30 27.7956 29.6839 28.5587 29.1213 29.1213C28.5587 29.6839 27.7956 30 27 30H3C2.20435 30 1.44129 29.6839 0.87868 29.1213C0.31607 28.5587 0 27.7956 0 27L0 3ZM10 10H8V8H10V10ZM8 22V12H10V22H8ZM17 14C16.2044 14 15.4413 14.3161 14.8787 14.8787C14.3161 15.4413 14 16.2044 14 17V22H12V12H14V13C14.7428 12.4429 15.6262 12.1036 16.551 12.0202C17.4758 11.9368 18.4055 12.1126 19.2361 12.5279C20.0666 12.9431 20.7651 13.5815 21.2533 14.3713C21.7414 15.1612 22 16.0714 22 17V22H20V17C20 16.2044 19.6839 15.4413 19.1213 14.8787C18.5587 14.3161 17.7956 14 17 14Z" fill="white"/>
</svg>
